<?xml version="1.0" standalone="no"?>
<!DOCTYPE svg PUBLIC "-//W3C//DTD SVG 1.1//EN" "http://www.w3.org/Graphics/SVG/1.1/DTD/svg11.dtd" >
<!--
2013-9-30: Created.
-->
<svg>
<metadata>
Created by iconfont
</metadata>
<defs>

<font id="iconfont" horiz-adv-x="1024" >
  <font-face
    font-family="iconfont"
    font-weight="500"
    font-stretch="normal"
    units-per-em="1024"
    ascent="896"
    descent="-128"
  />
    <missing-glyph />
    
    <glyph glyph-name="sousuo" unicode="&#58893;" d="M985.781333-22.594133 820.773333 130.4736c27.3728 32.973867 49.6544 69.5776 66.436267 109.258667 22.933333 54.218667 34.561067 111.7952 34.561067 171.1296 0 59.333333-11.627733 116.910933-34.561067 171.1296-22.142933 52.354133-53.837867 99.365333-94.200533 139.729067S705.633067 793.777067 653.28 815.92c-54.218667 22.933333-111.7952 34.561067-171.1296 34.561067S365.240533 838.852267 311.021867 815.92c-52.354133-22.142933-99.365333-53.8368-139.729067-94.200533s-72.0576-87.374933-94.200533-139.729067c-22.932267-54.218667-34.56-111.7952-34.56-171.1296 0-59.3344 11.627733-116.910933 34.56-171.1296 22.144-52.354133 53.837867-99.365333 94.200533-139.729067s87.374933-72.0576 139.729067-94.200533c54.218667-22.932267 111.7952-34.56 171.1296-34.56s116.910933 11.627733 171.1296 34.56c45.352533 19.181867 86.686933 45.543467 123.172267 78.487467L942.256-69.514667c6.16-5.714133 13.966933-8.539733 21.755733-8.539733 8.593067 0 17.163733 3.441067 23.467733 10.237867C999.4976-54.8608 998.738133-34.612267 985.781333-22.594133zM482.151467 35.2416c-207.117867 0-375.620267 168.5024-375.620267 375.620267 0 207.1168 168.5024 375.6192 375.620267 375.6192S857.770667 617.978667 857.770667 410.861867C857.770667 203.744 689.268267 35.2416 482.151467 35.2416z"  horiz-adv-x="1024" />

    
    <glyph glyph-name="gouwuche" unicode="&#58943;" d="M246.4-16a2.1 2.1 0 1 0 134.4 0 2.1 2.1 0 1 0-134.4 0ZM716.8-16a2.1 2.1 0 1 0 134.4 0 2.1 2.1 0 1 0-134.4 0ZM905.6 131.2l-537.6 0c-28.8 0-57.6 25.6-64 54.4l-96 566.4c-9.6 54.4-60.8 96-115.2 96l-22.4 0c-12.8 0-25.6-12.8-25.6-25.6 0-12.8 12.8-25.6 25.6-25.6l22.4 0c28.8 0 57.6-25.6 64-54.4l96-566.4c9.6-54.4 60.8-96 115.2-96l537.6 0c12.8 0 25.6 12.8 25.6 25.6C931.2 118.4 921.6 131.2 905.6 131.2zM880 716.8l-572.8 0c-12.8 0-25.6-12.8-25.6-25.6 0-12.8 12.8-25.6 25.6-25.6l572.8 0c25.6 0 38.4-16 32-41.6l-70.4-281.6c-6.4-32-41.6-57.6-73.6-60.8l-396.8-28.8c-12.8 0-25.6-12.8-22.4-28.8 0-12.8 12.8-25.6 28.8-22.4l396.8 28.8c54.4 3.2 105.6 48 118.4 99.2l70.4 281.6C976 665.6 937.6 716.8 880 716.8z"  horiz-adv-x="1024" />

    
    <glyph glyph-name="shezhi" unicode="&#58955;" d="M512 198.4c102.4 0 182.4 83.2 182.4 185.6 0 102.4-83.2 185.6-182.4 185.6-102.4 0-182.4-83.2-182.4-185.6C329.6 281.6 412.8 198.4 512 198.4L512 198.4zM512 249.6c-73.6 0-134.4 60.8-134.4 134.4 0 73.6 60.8 134.4 134.4 134.4 73.6 0 134.4-60.8 134.4-134.4C646.4 310.4 585.6 249.6 512 249.6L512 249.6zM249.015232 52.821408c35.2-28.8 73.6-51.2 112-67.2 41.6 38.4 96 60.8 150.4 60.8 57.6 0 108.8-22.4 150.4-60.8 41.6 16 80 38.4 112 67.2-12.8 54.4-3.2 112 22.4 163.2 28.8 48 73.6 86.4 128 102.4 3.2 22.4 6.4 44.8 6.4 67.2 0 22.4-3.2 44.8-6.4 67.2-54.4 16-99.2 54.4-128 102.4-28.8 48-35.2 108.8-22.4 163.2-35.2 28.8-73.6 51.2-112 67.2-41.6-38.4-92.8-60.8-150.4-60.8-54.4 0-108.8 22.4-150.4 60.8-41.6-16-80-38.4-112-67.2 12.8-54.4 3.2-112-22.4-163.2-28.8-48-73.6-86.4-128-102.4-3.2-22.4-6.4-44.8-6.4-67.2 0-22.4 3.2-44.8 6.4-67.2 54.4-16 99.2-54.4 128-102.4C252.215232 164.821408 261.815232 107.221408 249.015232 52.821408M361.015232-62.378592c-54.4 19.2-105.6 48-150.4 89.6-6.4 6.4-9.6 16-6.4 22.4 16 48 9.6 99.2-16 140.8-25.6 44.8-64 73.6-112 83.2-9.6 3.2-16 9.6-16 19.2-6.4 28.8-9.6 60.8-9.6 89.6 0 28.8 3.2 57.6 9.6 89.6 3.2 9.6 9.6 16 16 19.2 48 12.8 89.6 41.6 112 83.2 25.6 44.8 28.8 92.8 16 140.8-3.2 9.6 0 19.2 6.4 22.4 44.8 38.4 96 67.2 150.4 89.6 9.6 3.2 16 0 22.4-6.4 35.2-35.2 80-57.6 128-57.6 48 0 96 19.2 128 57.6 6.4 6.4 16 9.6 22.4 6.4 54.4-19.2 105.6-48 150.4-89.6 6.4-6.4 9.6-16 6.4-22.4-16-48-9.6-99.2 16-140.8 25.6-44.8 64-73.6 112-83.2 9.6-3.2 16-9.6 16-19.2 6.4-28.8 9.6-60.8 9.6-89.6 0-28.8-3.2-57.6-9.6-89.6-3.2-9.6-9.6-16-16-19.2-48-12.8-89.6-41.6-112-83.2-25.6-44.8-28.8-92.8-16-140.8 3.2-9.6 0-19.2-6.4-22.4-44.8-38.4-96-67.2-150.4-89.6-9.6-3.2-16 0-22.4 6.4-35.2 35.2-80 57.6-128 57.6-48 0-96-19.2-128-57.6-3.2-3.2-9.6-6.4-16-6.4C364.215232-62.378592 361.015232-62.378592 361.015232-62.378592z"  horiz-adv-x="1024" />

    
    <glyph glyph-name="shouye" unicode="&#58959;" d="M969.6 393.6l-118.4 112-323.2 300.8c-9.6 9.6-22.4 9.6-32 0l-313.6-297.6c-3.2-3.2-6.4-6.4-9.6-9.6l-118.4-112c-9.6-9.6-9.6-22.4 0-32s22.4-9.6 32 0l83.2 80 0-393.6c0-48 41.6-89.6 92.8-89.6l83.2 0c38.4 0 70.4 28.8 70.4 67.2l0 217.6 99.2 0 99.2 0 0-217.6c0-35.2 32-67.2 70.4-67.2l83.2 0c51.2 0 92.8 38.4 92.8 89.6l0 396.8 80-73.6c9.6-9.6 22.4-9.6 32 0C979.2 371.2 979.2 384 969.6 393.6zM809.6 38.4c0-25.6-19.2-44.8-44.8-44.8l-83.2 0c-12.8 0-22.4 9.6-22.4 22.4L659.2 256c0 12.8-9.6 22.4-22.4 22.4l-121.6 0-121.6 0c-12.8 0-22.4-9.6-22.4-22.4l0-240c0-12.8-9.6-22.4-22.4-22.4l-83.2 0c-25.6 0-44.8 19.2-44.8 44.8l0 438.4 294.4 281.6 294.4-281.6L809.6 38.4z"  horiz-adv-x="1024" />

    
    <glyph glyph-name="wodedingdan" unicode="&#58965;" d="M883.2 835.2l-89.6 0c-12.8 0-25.6-9.6-25.6-25.6s9.6-25.6 25.6-25.6l89.6 0c25.6 0 48-22.4 48-48l0-713.6c0-25.6-22.4-48-48-48l-736 0c-25.6 0-48 22.4-48 48l0 713.6c0 25.6 22.4 48 48 48l99.2 0c12.8 0 25.6 9.6 25.6 25.6s-9.6 25.6-25.6 25.6l-99.2 0c-54.4 0-96-41.6-96-96l0-713.6c0-54.4 41.6-96 96-96l736 0c54.4 0 96 41.6 96 96l0 713.6C979.2 793.6 934.4 835.2 883.2 835.2zM393.6 787.2l240 0c12.8 0 25.6 9.6 25.6 25.6s-9.6 25.6-25.6 25.6l-240 0c-12.8 0-25.6-9.6-25.6-25.6S380.8 787.2 393.6 787.2zM294.4 550.4l464 0c12.8 0 25.6 9.6 25.6 25.6s-9.6 25.6-25.6 25.6l-464 0c-12.8 0-25.6-9.6-25.6-25.6S278.4 550.4 294.4 550.4zM294.4 355.2l464 0c12.8 0 25.6 9.6 25.6 25.6s-9.6 25.6-25.6 25.6l-464 0c-12.8 0-25.6-9.6-25.6-25.6S278.4 355.2 294.4 355.2zM294.4 160l464 0c12.8 0 25.6 9.6 25.6 25.6s-9.6 25.6-25.6 25.6l-464 0c-12.8 0-25.6-9.6-25.6-25.6S278.4 160 294.4 160z"  horiz-adv-x="1024" />

    
    <glyph glyph-name="wodejuhuasuan" unicode="&#58969;" d="M620.8 409.6c54.4 38.4 92.8 102.4 92.8 172.8 0 118.4-96 211.2-211.2 211.2-115.2 0-211.2-96-211.2-211.2 0-73.6 38.4-140.8 96-176-204.8-48-355.2-214.4-339.2-406.4 0 0 0 3.2 0 0l0 0c0 0 0-9.6 3.2-12.8 3.2-6.4 12.8-12.8 19.2-12.8l880 0c9.6 0 19.2 9.6 22.4 22.4l0 0 0 0c0 6.4 0 0 0 0C992 198.4 832 368 620.8 409.6zM336 585.6c0 89.6 73.6 163.2 163.2 163.2 89.6 0 163.2-73.6 163.2-163.2s-73.6-163.2-163.2-163.2C409.6 422.4 336 496 336 585.6zM96 25.6c-9.6 192 179.2 348.8 412.8 348.8l3.2 0c233.6 0 422.4-153.6 416-348.8L96 25.6z"  horiz-adv-x="1024" />

    
    <glyph glyph-name="jiantou-copy-copy" unicode="&#58880;" d="M584.374-128l51.165 51.165-460.489 460.479 460.489 460.493-51.165 51.165-511.654-511.658z"  horiz-adv-x="1024" />

    
    <glyph glyph-name="sousuo-copy" unicode="&#58881;" d="M984.784-16.008l-274.277 276.084c111.52 147.296 100.152 358.003-34.154 492.308-146.788 146.788-384.78 146.788-531.568 0-146.788-146.754-146.788-384.747 0-531.535 134.258-134.258 344.8-145.691 492.083-34.354l274.337-276.113c9.014-9.013 23.67-9.013 32.683 0l40.895 40.895c9.045 9.046 9.045 23.7-0.001 32.715zM214.423 288.451c-107.796 107.795-107.796 282.559 0 390.321 107.797 107.796 282.524 107.796 390.322 0 107.797-107.762 107.797-282.526 0-390.321-107.798-107.797-282.525-107.797-390.322 0z"  horiz-adv-x="1024" />

    
    <glyph glyph-name="arrows-copy-copy" unicode="&#59050;" d="M490.068 611.588c12.692 12.692 33.188 12.774 45.78 0.184l413.771-413.772c12.591-12.591 12.508-33.088-0.184-45.78v0c-12.692-12.692-33.188-12.774-45.78-0.184l-413.772 413.772c-12.589 12.591-12.507 33.087 0.185 45.779v0zM76.148 153.263c-12.692 12.692-12.774 33.188-0.184 45.78l413.772 413.771c12.591 12.591 33.088 12.508 45.78-0.184v0c12.692-12.692 12.774-33.188 0.184-45.78l-413.771-413.771c-12.591-12.59-33.088-12.508-45.78 0.184v0z"  horiz-adv-x="1024" />

    
    <glyph glyph-name="qianbao" unicode="&#58882;" d="M717.20615 542.629857c-11.614525 6.698562-23.896246 12.280698-35.885302 18.384719 2.367931 2.662643 4.422729 4.535293 6.447853 6.440689 20.803815 19.579941 39.486316 42.228777 49.245587 68.951395 4.730745 12.955056 5.903453 18.58938 9.188267 30.621415 6.112208 37.974893-0.916882 61.058634-23.831778 80.255858-30.963199 25.935696-66.095347 29.007661-103.211687 13.782912-2.578732-1.061169-4.285606-1.831718-6.850012 0.561795-47.76691 44.50154-124.46064 44.914956-172.555007 0.980327-2.249227-2.055822-3.872191-2.570545-6.786567-1.252527-19.517519 8.850575-39.919175 10.742668-60.85909 6.481622-39.679721-8.080026-72.506361-41.337477-66.681701-86.753853 5.054109-39.404452 20.556175-73.501014 47.284933-102.893438 5.484921-6.03546 11.316743-11.762905 17.220196-17.866927-1.469468-0.708128-2.926656-1.437745-4.409426-2.109034-136.53156-61.500703-228.754984-195.133236-239.554958-347.130021-2.987031-42.032302-4.327562-79.733972 10.223852-124.873033 20.565385-63.789838 74.849732-113.557312 144.459113-113.403816 164.03496 0.376577 328.07606-0.039909 492.109997 0.217964 52.697199 0.078795 93.267197 23.372314 122.700553 65.797566 14.95869 21.573341 20.373003 46.375214 26.031887 71.717391 6.310729 34.856879 4.071735 131.461077-8.355295 177.14556-30.191626 110.986767-94.850252 196.671265-195.931415 254.943436z m167.247119-401.664056c-3.599991-23.434735-7.489578-48.021713-20.702508-67.725474-25.990954-38.752606-75.78708-60.048631-122.317837-60.119239-144.864342-0.226151-289.726637 0.151449-434.589956-0.192382-61.471027-0.147356-119.449509 34.06177-134.351917 93.380784-9.461489 37.653575-8.439206 84.760452-5.801123 123.160018 9.538237 138.864698 135.182842 269.819239 255.750825 326.011028 1.312902 0.610914-34.750455 32.224935-39.593763 37.734416-23.606651 26.854625-38.347376 48.601928-42.810015 84.600817-5.477758 44.192501 27.572986 57.236586 47.573505 61.448514 18.498306 3.89982 57.750285-15.826454 59.737546-13.95585 42.47744 40.144302 110.199845 39.766702 152.387689-0.8913 2.266623-2.184759 3.770883-1.482771 6.048763-0.514723 32.773428 13.907755 60.491723 22.48613 87.841628-1.212618 20.231787-17.533328 20.705578-30.562063 15.743565-58.095139-3.016707-11.42112-21.73093-41.974997-28.875654-51.43751-26.409486-34.982746-52.256154-57.308217-54.039777-59.05193-0.189312-0.193405 56.443523-26.774807 65.913199-33.991162 87.425142-66.600861 146.368602-118.118188 173.029822-219.522716 14.005992-53.266158 27.424606-105.110943 19.056008-159.625534z m-411.552264 285.10334c-6.734378 7.108908-27.187199 28.14092-27.187199 28.140921h-40.120766s0.13303-13.713326 0.13303-17.799388c0-4.084015 100.018971-102.573143 100.018971-102.573144h-100.152001v-40.062438h100.152001v-40.361243h-100.018971v-39.82196h100.16735v-80.296791h40.11872l-0.356111 80.296791h100.660584v40.063461h-100.305497l-0.35611 40.119742h100.522438v40.062438h-100.522438l100.522438 102.573144v17.799388h-39.981597s-34.843576-33.698496-42.460044-42.083468c-3.178389-2.682086-26.333762-27.421536-37.784558-38.793538l-53.05024 52.736085z"  horiz-adv-x="1024" />

    
    <glyph glyph-name="kefu" unicode="&#58628;" d="M931.961 318.501c0.235 9.515 0.263 19.193 0.066 28.899 2.593 131.284-36.479 241.949-113.001 320.064-36.5 37.247-80.89 65.835-131.758 85.313-7.895 70.912-84.91 126.745-178.458 126.745-93.547 0-170.554-55.833-178.452-126.745-50.865-19.478-95.249-48.066-131.746-85.315-76.542-78.115-115.627-188.561-113.025-319.447-0.227-12.367-0.151-23.977 0.235-35.329-19.834-19.965-35.372-50.113-24.019-92.428 8.44-31.44 31.699-54.999 60.241-65.308 14.502-8.94 31.54-14.149 49.768-14.269 36.39-159.102 168.486-267.113 340.992-267.113 172.185 0 304.313 108.279 340.501 267.474 1.111-0.24 2.265-0.37 3.453-0.37 22.728 0 43.629 7.933 60.114 21.147 21.558 12.229 38.41 32.69 45.32 58.44 12.519 46.642-7.643 78.513-30.229 98.244v0zM358.294 508.306c2.738-4.588 68.477-112.984 192.345-159.971 34.168-12.961 69.18-20.381 103.037-27.548 67.922-14.389 132.079-27.981 175.79-84.719 0.455-0.597 0.963-1.138 1.483-1.658-0.065-2.86-0.065-2.866-0.065-2.866 0-21.147-1.598-41.6-4.679-61.246-56.196-89.793-149.429-148.621-264.936-161.293-8.606 11.358-26.143 19.195-46.512 19.195-28.889 0-52.329-15.638-52.329-34.88 0-19.288 23.44-34.886 52.329-34.886 25.89 0 47.218 12.601 51.371 29.080 37.255 4.28 72.775 13.186 106.074 26.624 47.568 19.215 89.48 47.196 124.573 83.177 5.619 5.755 11.009 11.709 16.228 17.824-41.823-127.373-153.625-209.258-299.581-209.27v0c-0.262 0.012-0.979 0.012-1.239 0.012-187.283 0-318.088 133.918-318.088 325.969l-0.35 18.269c-0.232 7.835 0.985 29.836 2.287 50.928 102.096 36.123 144.489 139.898 146.343 144.562l15.919 62.697zM425.63 217.29c0-33.431-27.108-60.547-60.549-60.547-33.438 0-60.546 27.117-60.546 60.547 0 33.441 27.108 60.551 60.546 60.551 33.439-0 60.549-27.11 60.549-60.551zM707.585 217.29c0-32.899-26.673-59.572-59.578-59.572s-59.583 26.673-59.583 59.572c0 32.911 26.678 59.584 59.583 59.584s59.578-26.673 59.578-59.584z"  horiz-adv-x="1024" />

    
    <glyph glyph-name="qianbao1" unicode="&#58948;" d="M863.72209 12.760864c-14.024761-22.981104-28.870733-47.040048-51.325748-61.911684-44.217132-29.230014-105.692547-29.743271-154.528996-9.508094-151.911383 63.169164-303.553306 127.031227-455.516014 190.033582C137.873361 158.192371 92.077962 219.423989 102.432932 288.09784c6.569696 43.626886 28.229161 92.527492 47.835597 131.612049 70.778207 141.35111 259.785274 223.58779 410.734299 229.682723 1.642424 0.064157-22.313869 48.977595-24.982808 56.88176-12.985414 38.494311-18.913538 67.711493-7.827176 107.399128 13.601323 48.759461 53.892035 47.912586 76.757656 43.626886 21.082051-4.01624 53.596912-41.868979 56.458323-40.778307 62.091324 23.468698 132.895193-6.569696 159.30229-67.647336 1.42429-3.284848 3.310511-3.207859 6.107764-3.195028 40.431858 0.230966 73.241843-2.912736 91.526641-39.777454 13.524335-27.228309 8.327603-41.060598-8.982006-67.775651-8.160794-10.650093-41.150419-34.478071-52.775701-41.265901a484.887174 484.887174 0 0 0-82.390657-38.199188c-0.282292-0.115483 47.476317-52.762869 54.19999-64.46514 62.463435-108.066363 101.676307-187.852238 85.239236-305.798807-8.635557-61.963009-17.271114-122.168112-49.91429-175.63671zM864.286674 506.912335c-9.238635 12.100045-19.670593 23.327553-29.512306 34.965666 3.644128 1.757907 6.621022 2.822916 9.572252 3.92642 30.372011 11.407148 59.858654 26.946018 81.78758 50.697007 10.62443 11.548293 14.319884 16.899003 23.032429 28.062353 23.032429 37.121347 25.778357 64.388151 10.162499 94.529197-21.094882 40.739813-56.573806 59.332565-102.125408 59.627688-3.156534 0-5.286552 0-6.928976 3.592802C819.620441 849.870984 739.449623 883.874292 669.813414 858.891484c-3.259185-1.167661-5.132575-1.000852-7.698862 1.655256-16.539722 17.822866-37.082853 28.729587-60.898 33.425893-45.128164 8.905017-94.080096-11.548293-107.86106-61.719212-11.946068-43.511403-10.637261-85.970628 4.516666-128.532505 3.105208-8.725377 6.710842-17.283946 10.26515-26.265951-1.847727-0.08982-3.695454-0.218134-5.543181-0.269461-170.042203-4.683475-325.187108-104.358077-403.048268-258.912736C77.963381 375.531252 60.114853 336.613503 55.598187 282.939602c-6.415719-75.859456 28.729587-151.770237 101.740464-182.078091 172.06957-71.419778 343.792692-143.712095 515.823768-215.196031 55.252168-22.981104 107.976543-16.321588 157.390407 15.256579 25.111122 16.039296 41.676507 39.661972 58.66533 63.746579 6.928976 9.816049 0.898201-12.536314 20.068367 33.361736s41.740665 102.651496 48.759461 155.940455c16.950328 129.533357-13.3062 247.646734-93.66949 352.941506z m-0.564584-494.138639c-14.024761-22.981104-28.870733-47.040048-51.325748-61.911684-44.217132-29.242845-105.692547-29.756102-154.528996-9.520926-151.911383 63.169164-303.553306 127.031227-455.516014 190.033582C137.873361 158.192371 92.077962 219.423989 102.432932 288.09784c6.569696 43.626886 28.229161 92.527492 47.835597 131.612049 70.778207 141.35111 259.785274 223.58779 410.734299 229.682723 1.642424 0.064157-22.313869 48.977595-24.982808 56.88176-12.985414 38.494311-18.913538 67.711493-7.827176 107.399128 13.601323 48.759461 53.892035 47.912586 76.757656 43.626886 21.082051-4.01624 53.596912-41.868979 56.458323-40.778307 62.091324 23.468698 132.895193-6.569696 159.30229-67.647336 1.42429-3.284848 3.310511-3.207859 6.107764-3.195028 40.431858 0.230966 73.241843-2.912736 91.526641-39.777454 13.524335-27.228309 8.327603-41.060598-8.982006-67.775651-8.160794-10.650093-41.150419-34.478071-52.775701-41.265901a484.887174 484.887174 0 0 0-82.390657-38.199188c-0.282292-0.115483 47.476317-52.762869 54.19999-64.46514 62.463435-108.066363 101.676307-187.852238 85.239236-305.798807-8.635557-61.963009-17.271114-122.168112-49.91429-175.63671zM557.230386 491.694251c-3.952083 10.393464-16.180442 41.394216-16.180442 41.394216l-42.04862 17.566237s-5.863967-14.435367-7.698862-18.708235 59.922811-151.269811 59.922811-151.269811l-104.961155 43.84502-17.540574-41.984462 104.961155-43.84502-17.668889-42.343742-104.820009 43.780863-17.437923-41.740665L498.834516 254.582126l-35.145306-84.148564 42.048619-17.566237 34.773194 84.302541 105.487244-44.063155 17.540574 41.984462-105.166457 43.922009L575.566509 321.151621l105.346098-44.011829 17.540574 41.984462-105.346097 44.011829 150.243296 63.477119 7.788682 18.65691L709.270083 462.836349s-51.261591-20.068368-62.874041-25.521728c-4.503834-1.42429-39.597815-17.206957-56.573806-24.11027l-32.514862 78.4899z"  horiz-adv-x="1024" />

    
    <glyph glyph-name="jinbi" unicode="&#58916;" d="M913.7 384.2c0 221.7-179.7 401.4-401.4 401.4S110.9 605.9 110.9 384.2s179.7-401.4 401.4-401.4 401.4 179.7 401.4 401.4zM512.3-63.3c-246.8 0-447.6 200.8-447.6 447.6C64.7 631 265.5 831.8 512.3 831.8S959.8 631 959.8 384.2c0-246.7-200.7-447.5-447.5-447.5z m0 798.9c-193.8 0-351.4-157.6-351.4-351.4 0-193.8 157.6-351.4 351.4-351.4 193.7 0 351.4 157.6 351.4 351.4 0 193.8-157.7 351.4-351.4 351.4zM609.9 479.5c-20.7-7-43.1 4.2-50 25.1-5.1 15.2-24.2 33.1-61.4 33.1-28.9 0-45.9-18.8-47.8-37.4-2.4-23.1 18.5-41.6 55.9-49.5C596 432 630.5 369.2 625 315.4c-5-48.9-40.1-88.2-87-102.6v-24.2c0-21.9-17.7-39.7-39.5-39.7s-39.6 17.8-39.6 39.7v23c-54.3 12.6-85.9 49.5-96.8 82.4-6.9 20.8 4.2 43.3 25 50.2 20.7 7 43.1-4.3 50-25 5.5-16.5 26.6-33.1 61.4-33.1 28.8 0 45.9 18.8 47.8 37.3 2.4 23.1-18.5 41.6-55.9 49.5-89.5 18.8-123.9 81.6-118.4 135.4 5 48.9 40.1 88.2 87 102.6v24.2c0 21.9 17.7 39.7 39.6 39.7 21.8 0 39.6-17.8 39.6-39.7v-23c54.2-12.6 85.8-49.5 96.8-82.4 6.7-20.7-4.4-43.2-25.1-50.2z"  horiz-adv-x="1024" />

    
    <glyph glyph-name="jinbi1" unicode="&#58901;" d="M512 896C229.76 896 0 666.30656 0 384c0-282.368 229.76-512 512-512s512 229.69856 512 512S794.24 896 512 896z m141.824-569.088v-0.128a43.06944 43.06944 0 0 0 43.264-42.624 43.13088 43.13088 0 0 0-43.264-42.68544h-88.064v-43.008h-0.57344c0.64-3.26144 1.152-6.85056 1.152-10.368 0-29.50656-24.32-53.376-54.4-53.376-29.75744-0.35328-54.1696 23.48032-54.528 53.24288v0.13312c0 3.52256 0.45056 7.04 1.152 10.368h-0.896v43.008H370.432a43.136 43.136 0 0 0-43.52 42.68544c0 23.552 19.51744 42.624 43.52 42.624h0.18944v0.128h87.04v42.55744h-87.04v0.128h-0.18944a43.136 43.136 0 0 0-43.52 42.624c0 23.552 19.51744 42.68544 43.52 42.68544h0.18944v0.128h79.488c0.71168 2.72384 1.9712 5.2736 3.712 7.49056L356.096 558.336c-12.09856 11.83744-8.13056 34.944 8.77056 51.51744 16.896 16.57344 40.448 20.48 52.54144 8.64256L513.024 524.73344l88.576 92.544c13.76256 14.72 41.66656 11.136 58.69056-5.76 16.95744-16.768 25.53856-32 8.704-50.56L566.016 457.728c-0.06656-1.024 0.256-1.792 0-2.75456h87.74656v-0.128a43.07968 43.07968 0 0 0 43.33056-42.69056 43.20256 43.20256 0 0 0-43.33056-42.752h-87.936v-42.55744H653.824v0.06656z"  horiz-adv-x="1024" />

    
    <glyph glyph-name="hongbao" unicode="&#58974;" d="M939.070061 823.078788l-442.864485-258.513455L84.526545 822.520242A185.871515 185.871515 0 0 0 232.727273 896h558.545454a185.871515 185.871515 0 0 0 147.797334-72.921212z m32.023272-64.853333C975.282424 742.772364 977.454545 726.574545 977.454545 709.818182v-651.636364a186.181818 186.181818 0 0 0-186.181818-186.181818H232.727273a186.181818 186.181818 0 0 0-186.181818 186.181818V709.818182c0 16.011636 2.01697 31.526788 5.802666 46.359273L496.205576 492.606061l474.887757 265.619394zM325.818182 430.545455l126.138182-218.453334h-91.539394v-30.409697h108.854303v-59.609212h-108.823273v-30.409697h108.823273V-3.878788h54.427151v95.511273h109.443879v30.409697h-109.443879V181.682424h109.443879v30.409697h-92.16L667.151515 430.545455h-61.222788L496.484848 230.989576 387.04097 430.545455H325.818182z"  horiz-adv-x="1024" />

    
    <glyph glyph-name="shangcheng" unicode="&#58631;" d="M512-359.489906M214.911053 693.369578l590.493704 0c12.997002 0 23.537877 10.540875 23.537877 23.537877s-10.540875 23.537877-23.537877 23.537877L214.911053 740.445333c-12.997002 0-23.537877-10.540875-23.537877-23.537877S201.914052 693.369578 214.911053 693.369578zM916.237458 478.867879L844.293424 642.20028 167.323606 642.20028l-50.248251-147.469918c-2.763142-5.628623-4.912253-11.973616-6.447332-18.93264l-0.921047-2.558465 0.307016-0.102339c-1.637418-8.391765-2.353788-17.704577-2.353788-28.143114 0-26.710374 10.438537-50.555267 30.087547-69.078553 17.090546-16.06716 40.8331-27.119728 66.724765-30.906256 6.140316-0.921047 12.38297-1.330402 18.523286-1.330402 30.394563 0 60.584449 10.847891 83.405956 30.496902 2.149111 1.842095 4.093544 3.684189 6.037977 5.628623 3.888867-6.344993 8.391765-12.38297 13.406356-17.806916 21.593444-23.844893 50.452928-36.944233 81.461523-36.944233 30.496902 0 60.789127 13.201679 83.098941 36.330202 4.093544 4.298221 7.880072 8.801119 11.359584 13.508695 5.014591-6.344993 10.847891-12.485309 17.295223-18.113932 25.379972-22.105137 57.309614-34.795123 87.806516-34.795123 30.394563 0 62.426544 13.508695 87.908855 36.944233 5.935639 5.423946 11.257246 11.257246 15.964821 17.397561 5.526284-8.289426 12.075954-15.760144 19.341995-22.105137 15.248451-13.201679 40.935439-27.631421 80.438137-27.631421 5.730961 0 11.768939 0.307016 18.011593 0.921047 56.695583 5.935639 97.835699 48.099141 97.835699 100.189486C926.368979 449.087348 923.094144 465.563862 916.237458 478.867879zM823.621027 374.277833c-26.505697-2.763142-47.689786 2.456126-62.73356 15.555467-14.225065 12.280632-23.230861 32.031981-24.04957 52.806716-0.102339 2.149111-0.511693 4.298221-1.125725 6.242654-1.842095 11.154907-11.564261 19.649011-23.230861 19.649011-12.997002 0-23.537877-10.540875-23.537877-23.537877 0-17.397561-9.51749-36.227863-26.198681-51.578653C646.1659 378.06436099999996 625.288827 368.956226 606.867879 368.956226c-18.93264 0-40.219069 8.698781-56.797921 23.230861-14.122726 12.280632-23.026184 27.119728-25.379972 41.754148 0.409354 3.684189 0.511693 7.368379 0.511693 11.052568 0 12.997002-10.540875 23.537877-23.537877 23.537877-10.745553 0-19.853688-7.26604-22.61683-17.192884-1.330402-2.967819-2.149111-6.242654-2.149111-9.722167 0-2.456126 0.102339-5.014591 0.307016-7.470718-2.456126-14.634419-9.619828-28.757146-20.570058-40.11673C443.126124 380.00879499999996 425.114531 372.026384 407.307615 372.026384c-17.4999 0-34.078753 7.573056-46.564062 21.491105-12.587647 13.815711-19.751349 32.646012-19.751349 51.476314 0 12.997002-10.540875 23.537877-23.537877 23.537877-12.689986 0-23.026184-10.029182-23.537877-22.61683-0.102339-1.023386-0.204677-2.149111-0.204677-3.274835 0-11.052568-6.54967-23.026184-18.011593-32.953028-17.192884-14.839097-41.242455-21.593444-64.268639-18.21627-41.856486 6.242654-56.695583 32.646012-56.695583 53.420748 0 7.163702 0.511693 13.406356 1.43274 18.625625l4.195882 12.38297c0.102339 0.204677 0.307016 0.511693 0.409354 0.71637 2.456126 3.786528 3.786528 7.880072 3.888867 12.075954L200.993004 595.124525 813.591845 595.124525l56.18389-127.61623c0.614032-2.865481 1.739756-5.730961 3.479512-8.289426 0.204677-0.307016 0.409354-0.71637 0.614032-1.023386l1.023386-2.251449 0.102339 0.102339c2.865481-6.344993 4.298221-15.862483 4.298221-28.45013C879.293224 404.672397 861.895663 378.269039 823.621027 374.277833zM836.106336 260.477314l0 7.163702-0.102339 0-0.307016 16.374175c-36.637218-0.71637-69.794923 15.248451-86.373776 24.76594-14.532081 8.391765-32.953028 7.675395-46.768739-1.944433-33.464721-23.128523-66.417749-32.543674-98.040376-27.73376-26.608035 3.991205-46.461723 17.192884-55.979212 24.76594-14.736758 11.6666-35.204477 12.689986-51.06696 2.353788-72.046372-47.075755-127.513892-21.388767-154.121927-1.944433-15.862483 11.6666-37.762942 11.154907-53.21607-1.330402-23.435539-18.830302-68.976214-21.593444-84.531681-20.979412l-0.102339-1.842095-2.865481 0-1.944433-273.244054c-0.102339-10.438537 3.888867-20.263042 11.257246-27.631421 7.368379-7.368379 17.090546-11.461923 27.529083-11.461923l557.847691 0c21.388767 0 38.786328 17.397561 38.786328 38.786328L836.106336 236.939436c0.102339 0 0.307016 0 0.409354 0L836.106336 260.477314zM247.864082 14.864681000000019l1.535079 223.302818c28.245453 4.605237 51.169298 13.508695 68.157505 26.505697 18.420947-13.09934 53.523086-32.441335 99.473116-32.441335 30.496902 0 65.803718 8.494104 104.180692 33.157705 16.271837-12.587647 42.163502-27.836098 76.344593-32.953028 7.777733-1.125725 15.555467-1.739756 23.3332-1.739756 35.613832 0 71.432341 12.075954 106.841495 36.227863 13.611033-7.675395 35.306816-18.21627 61.403158-24.458925L789.13292 14.864681000000019 247.864082 14.864681000000019z"  horiz-adv-x="1024" />

    
    <glyph glyph-name="jinbi2" unicode="&#59185;" d="M0.341333 392.533333c0-278.755556 236.088889-503.466667 523.377778-503.466666 290.133333 0 523.377778 224.711111 523.377778 503.466666 2.844444 278.755556-230.4 503.466667-520.533333 503.466667-290.133333 0-526.222222-224.711111-526.222223-503.466667zM60.074667 403.911111c0-238.933333 201.955556-435.2 452.266666-435.2s452.266667 193.422222 452.266667 435.2c2.844444 241.777778-201.955556 435.2-452.266667 435.2s-452.266667-193.422222-452.266666-435.2zM492.430222 628.622222h31.288889v-42.666666c31.288889-2.844444 54.044444-11.377778 73.955556-25.6 19.911111-17.066667 34.133333-42.666667 39.822222-79.644445h-54.044445c-2.844444 22.755556-11.377778 36.977778-22.755555 48.355556-8.533333 5.688889-19.911111 11.377778-34.133333 11.377777v-116.622222c36.977778-14.222222 59.733333-22.755556 65.422222-25.6 34.133333-19.911111 54.044444-48.355556 54.044444-85.333333s-14.222222-62.577778-39.822222-82.488889c-19.911111-14.222222-45.511111-19.911111-76.8-22.755556v-45.511111h-31.288889v45.511111c-34.133333 2.844444-62.577778 11.377778-79.644444 31.288889-22.755556 19.911111-34.133333 51.2-36.977778 93.866667h54.044444c2.844444-28.444444 8.533333-48.355556 19.911111-59.733333 8.533333-8.533333 22.755556-14.222222 39.822223-17.066667v125.155556l-56.888889 22.755555c-36.977778 19.911111-54.044444 48.355556-54.044445 85.333333 0 34.133333 14.222222 59.733333 39.822223 76.8 19.911111 14.222222 42.666667 22.755556 73.955555 22.755556V628.622222z m0-88.177778c-14.222222 0-25.6-5.688889-34.133333-11.377777-14.222222-8.533333-19.911111-22.755556-19.911111-42.666667s17.066667-36.977778 54.044444-51.2h2.844445v105.244444z m31.288889-287.288888c17.066667 2.844444 28.444444 5.688889 39.822222 14.222222 14.222222 11.377778 22.755556 22.755556 22.755556 42.666666 0 22.755556-17.066667 42.666667-54.044445 54.044445-2.844444 0-5.688889 2.844444-8.533333 2.844444v-113.777777zM523.719111 628.622222h31.288889v-42.666666c31.288889-2.844444 54.044444-11.377778 73.955556-25.6 19.911111-17.066667 34.133333-42.666667 39.822222-79.644445h-54.044445c-2.844444 22.755556-11.377778 36.977778-22.755555 48.355556-8.533333 5.688889-19.911111 11.377778-34.133334 11.377777v-116.622222c36.977778-14.222222 59.733333-22.755556 65.422223-25.6 34.133333-19.911111 54.044444-48.355556 54.044444-85.333333s-14.222222-62.577778-39.822222-82.488889c-19.911111-14.222222-45.511111-19.911111-76.8-22.755556v-45.511111h-31.288889v45.511111c-34.133333 2.844444-62.577778 11.377778-79.644444 31.288889-22.755556 19.911111-34.133333 51.2-36.977778 93.866667h54.044444c2.844444-28.444444 8.533333-48.355556 19.911111-59.733333 8.533333-8.533333 22.755556-14.222222 39.822223-17.066667v125.155556l-56.888889 22.755555c-36.977778 19.911111-54.044444 48.355556-54.044445 85.333333 0 34.133333 14.222222 59.733333 39.822222 76.8 19.911111 14.222222 42.666667 22.755556 73.955556 22.755556V628.622222z m0-88.177778c-14.222222 0-25.6-5.688889-34.133333-11.377777-14.222222-8.533333-19.911111-22.755556-19.911111-42.666667s17.066667-36.977778 54.044444-51.2h2.844445v105.244444z m31.288889-287.288888c17.066667 2.844444 28.444444 5.688889 39.822222 14.222222 14.222222 11.377778 22.755556 22.755556 22.755556 42.666666 0 22.755556-17.066667 42.666667-54.044445 54.044445-2.844444 0-5.688889 2.844444-8.533333 2.844444v-113.777777zM722.830222 654.222222c62.577778 14.222222 102.4 54.044444 119.466667 113.777778 17.066667-59.733333 56.888889-99.555556 119.466667-113.777778-62.577778-14.222222-102.4-54.044444-119.466667-113.777778-17.066667 59.733333-56.888889 96.711111-119.466667 113.777778zM722.830222 654.222222c62.577778 14.222222 102.4 54.044444 119.466667 113.777778 17.066667-59.733333 56.888889-99.555556 119.466667-113.777778-62.577778-14.222222-102.4-54.044444-119.466667-113.777778-17.066667 59.733333-56.888889 96.711111-119.466667 113.777778z"  horiz-adv-x="1052" />

    
    <glyph glyph-name="waimai" unicode="&#58754;" d="M775.58 436.76c0 33-28.27 59.16-62.83 59.16H199.22c-34.55 0-62.83-26.2-62.83-59.16L95.91-12.6c0-33 22.72-59.91 57.27-59.91h605.61c34.55 0 57.27 27 57.27 59.91zM831.54 559.16A14 14 0 0 0 845.71 545q0-2.71 0.23-5.41l50.06-590.21c-0.27-4-1.52-13.36-7.18-13.36H135.18c-5.66 0-6.9 9.34-7.18 13.36l50.09 590.2q0.23 2.7 0.23 5.41a14 14 0 0 0 14.17 14.16h639.05m0 64H192.46A78.06 78.06 0 0 1 114.28 545L63.91-48.82C63.91-92.37 92.18-128 135.18-128h753.64c43 0 71.27 35.63 71.27 79.18L909.72 545a78.06 78.06 0 0 1-78.18 78.18zM320.32 607.94c-0.09 2.68-0.36 5.3-0.36 8 0 119.13 86.15 216 192 216s192-96.92 192-216c0-2.7-0.27-5.32-0.36-8h64c0.07 2.68 0.37 5.3 0.37 8C768.09 770.61 653.41 896 512 896S255.95 770.61 255.95 615.94c0-2.7 0.3-5.32 0.37-8zM335.96 171.85a51.74 51.74 0 0 0-19.32 3.74c-2.94 1.17-29.78 12.31-58.36 38.46-37.12 33.95-61.19 78.65-69.63 129.3a52 52 0 0 0 42.75 59.84 52.42 52.42 0 0 0 8.59 0.72 51.82 51.82 0 0 0 51.26-43.47c10.78-64.67 61.59-87.23 64.49-88.47a52 52 0 0 0-19.77-100.12zM239.98 383.91a32 32 0 0 0 31.53-26.76c12.64-75.84 73.51-102.38 76.53-103.65a32.014 32.014 0 0 0-24-59.36c-4 1.58-97 40-115.7 152.48a32.06 32.06 0 0 0 31.61 37.27m0 40a72.44 72.44 0 0 1-11.88-1 72 72 0 0 1-59.19-82.86 246.64 246.64 0 0 1 30.39-84.73 242 242 0 0 1 45.46-56c30.55-27.94 59.07-40.13 64.47-42.28a72.008 72.008 0 0 1 54.39 133.35c-2.89 1.3-43.81 20.53-52.62 73.37a72 72 0 0 1-71 60.18zM561.99 171.85a51.74 51.74 0 0 0-19.32 3.74c-2.94 1.17-29.78 12.31-58.36 38.46-37.11 33.95-61.22 78.65-69.63 129.3a52 52 0 0 0 42.75 59.84 52.43 52.43 0 0 0 8.59 0.72 51.82 51.82 0 0 0 51.26-43.47c10.81-64.67 61.59-87.23 64.48-88.44a52 52 0 0 0-19.77-100.12zM466.02 383.91a32 32 0 0 0 31.53-26.76c12.64-75.83 73.54-102.38 76.54-103.64a32.014 32.014 0 0 0-24-59.36c-4 1.58-97 40-115.7 152.48a32.06 32.06 0 0 0 31.61 37.27m0 40a72.44 72.44 0 0 1-11.88-1 72 72 0 0 1-59.19-82.86 246.65 246.65 0 0 1 30.39-84.74 242 242 0 0 1 45.46-56c30.55-27.94 59.06-40.12 64.47-42.28a72.003 72.003 0 0 1 54.34 133.36c-2.89 1.3-43.81 20.53-52.62 73.37a72 72 0 0 1-71 60.18z"  horiz-adv-x="1024" />

    
    <glyph glyph-name="tuanduicankaoxian_huaban" unicode="&#58938;" d="M501.333333 768C706.133333 768 874.666667 599.466667 874.666667 394.666667S706.133333 21.333333 501.333333 21.333333 128 189.866667 128 394.666667 296.533333 768 501.333333 768m0 42.666667C270.933333 810.666667 85.333333 625.066667 85.333333 394.666667S270.933333-21.333333 501.333333-21.333333 917.333333 164.266667 917.333333 394.666667 731.733333 810.666667 501.333333 810.666667zM416 160c-6.4 0-10.666667 2.133333-14.933333 6.4-8.533333 8.533333-8.533333 21.333333 0 29.866667l198.4 198.4-198.4 198.4c-8.533333 8.533333-8.533333 21.333333 0 29.866666s21.333333 8.533333 29.866666 0l198.4-198.4c17.066667-17.066667 17.066667-42.666667 0-57.6l-198.4-198.4c-4.266667-6.4-8.533333-8.533333-14.933333-8.533333z"  horiz-adv-x="1024" />

    
    <glyph glyph-name="tuanduicankaoxian-" unicode="&#58939;" d="M512 736c204.8 0 373.333333-168.533333 373.333333-373.333333S716.8-10.666667 512-10.666667 138.666667 157.866667 138.666667 362.666667 307.2 736 512 736m0 42.666667C281.6 778.666667 96 593.066667 96 362.666667S281.6-53.333333 512-53.333333 928 132.266667 928 362.666667 742.4 778.666667 512 778.666667zM768 341.333333H256c-12.8 0-21.333333 8.533333-21.333333 21.333334s8.533333 21.333333 21.333333 21.333333h512c12.8 0 21.333333-8.533333 21.333333-21.333333s-8.533333-21.333333-21.333333-21.333334z"  horiz-adv-x="1024" />

    
    <glyph glyph-name="tuanduicankaoxian-1" unicode="&#58940;" d="M405.333333 245.333333c-14.933333 0-29.866667 4.266667-42.666666 12.8L78.933333 420.266667c-27.733333 14.933333-42.666667 44.8-42.666666 74.666666 0 32 17.066667 59.733333 42.666666 74.666667L362.666667 733.866667c29.866667 17.066667 64 14.933333 91.733333-4.266667 23.466667-17.066667 34.133333-44.8 27.733333-74.666667v-322.133333c6.4-29.866667-4.266667-57.6-27.733333-74.666667-14.933333-6.4-32-12.8-49.066667-12.8zM405.333333 704c-6.4 0-14.933333-2.133333-21.333333-6.4L100.266667 535.466667c-14.933333-8.533333-21.333333-21.333333-21.333334-38.4s8.533333-29.866667 21.333334-38.4L384 294.4c14.933333-8.533333 32-8.533333 44.8 0 6.4 4.266667 14.933333 14.933333 10.666667 32V661.333333c4.266667 19.2-6.4 27.733333-10.666667 32-8.533333 8.533333-14.933333 10.666667-23.466667 10.666667zM712.533333 23.466667h-196.266666c-42.666667 0-78.933333 36.266667-78.933334 78.933333s34.133333 76.8 76.8 76.8h192c32 0 61.866667 12.8 85.333334 34.133333 38.4 38.4 53.333333 108.8 0 174.933334-12.8 14.933333-42.666667 27.733333-61.866667 27.733333H439.466667v155.733333h298.666666c83.2 0 160-42.666667 202.666667-110.933333 74.666667-123.733333 64-264.533333-32-358.4-53.333333-49.066667-121.6-78.933333-196.266667-78.933333z m-196.266666 113.066666c-19.2 0-34.133333-14.933333-34.133334-34.133333 0-19.2 17.066667-36.266667 36.266667-36.266667h196.266667c61.866667 0 119.466667 23.466667 164.266666 68.266667 81.066667 81.066667 89.6 200.533333 25.6 307.2-34.133333 55.466667-98.133333 89.6-166.4 89.6h-256v-70.4h247.466667c34.133333 0 74.666667-19.2 96-44.8 70.4-87.466667 49.066667-181.333333-2.133333-232.533333-29.866667-29.866667-70.4-46.933333-115.2-46.933334h-192z"  horiz-adv-x="1024" />

    
    <glyph glyph-name="tuanduicankaoxian-2" unicode="&#58941;" d="M467.2 469.333333c-2.133333 0-4.266667 0-8.533333 2.133334-10.666667 4.266667-17.066667 17.066667-12.8 27.733333l93.866666 243.2c2.133333 4.266667 2.133333 10.666667-2.133333 14.933333s-8.533333 6.4-12.8 6.4h-298.666667c-6.4 0-10.666667-2.133333-12.8-6.4s-2.133333-10.666667-2.133333-17.066666l93.866667-243.2c4.266667-10.666667-2.133333-23.466667-12.8-27.733334-10.666667-4.266667-23.466667 2.133333-27.733334 12.8L172.8 725.333333c-6.4 19.2-4.266667 38.4 6.4 55.466667 10.666667 14.933333 29.866667 25.6 49.066667 25.6h298.666666c19.2 0 38.4-8.533333 49.066667-25.6 10.666667-14.933333 12.8-36.266667 6.4-55.466667l-93.866667-243.2c-4.266667-8.533333-12.8-12.8-21.333333-12.8zM467.2-53.333333c-12.8 0-21.333333 8.533333-21.333333 21.333333V490.666667c0 12.8 8.533333 21.333333 21.333333 21.333333s21.333333-8.533333 21.333333-21.333333v-522.666667c0-12.8-10.666667-21.333333-21.333333-21.333333zM285.866667 128c-12.8 0-21.333333 8.533333-21.333334 21.333333V490.666667c0 12.8 8.533333 21.333333 21.333334 21.333333s21.333333-8.533333 21.333333-21.333333v-341.333334c0-12.8-8.533333-21.333333-21.333333-21.333333zM919.466667 469.333333h-362.666667c-12.8 0-21.333333 8.533333-21.333333 21.333334s8.533333 21.333333 21.333333 21.333333h362.666667c12.8 0 21.333333-8.533333 21.333333-21.333333s-8.533333-21.333333-21.333333-21.333334zM919.466667 196.266667h-362.666667c-12.8 0-21.333333 8.533333-21.333333 21.333333s8.533333 21.333333 21.333333 21.333333h362.666667c12.8 0 21.333333-8.533333 21.333333-21.333333s-8.533333-21.333333-21.333333-21.333333zM919.466667 332.8H603.733333c-12.8 0-21.333333 8.533333-21.333333 21.333333s8.533333 21.333333 21.333333 21.333334h317.866667c12.8 0 21.333333-8.533333 21.333333-21.333334s-10.666667-21.333333-23.466666-21.333333z"  horiz-adv-x="1024" />

    
    <glyph glyph-name="tuanduicankaoxian-3" unicode="&#58942;" d="M512-46.933333c-55.466667 0-298.666667 194.133333-403.2 334.933333-85.333333 113.066667-72.533333 275.2 25.6 373.333333 68.266667 68.266667 172.8 83.2 258.133333 38.4l119.466667-64 119.466667 64c85.333333 44.8 189.866667 29.866667 258.133333-38.4 87.466667-87.466667 108.8-219.733333 53.333333-328.533333-4.266667-10.666667-17.066667-14.933333-27.733333-10.666667-10.666667 4.266667-14.933333 17.066667-10.666667 27.733334 46.933333 93.866667 27.733333 206.933333-46.933333 279.466666-55.466667 55.466667-138.666667 68.266667-206.933333 32L512 588.8 373.333333 661.333333c-68.266667 36.266667-151.466667 23.466667-206.933333-32-85.333333-85.333333-93.866667-221.866667-23.466667-317.866666 106.666667-145.066667 332.8-313.6 369.066667-317.866667 17.066667 2.133333 96 51.2 194.133333 136.533333 8.533333 8.533333 21.333333 6.4 29.866667-2.133333 8.533333-8.533333 6.4-21.333333-2.133333-29.866667-57.6-49.066667-181.333333-145.066667-221.866667-145.066666zM940.8 226.133333H714.666667c-12.8 0-21.333333 8.533333-21.333334 21.333334s8.533333 21.333333 21.333334 21.333333h226.133333c12.8 0 21.333333-8.533333 21.333333-21.333333s-8.533333-21.333333-21.333333-21.333334zM827.733333 113.066667c-12.8 0-21.333333 8.533333-21.333333 21.333333V360.533333c0 12.8 8.533333 21.333333 21.333333 21.333334s21.333333-8.533333 21.333334-21.333334v-226.133333c0-10.666667-8.533333-21.333333-21.333334-21.333333zM827.733333 452.266667c-12.8 0-21.333333 8.533333-21.333333 21.333333 0 51.2-40.533333 91.733333-91.733333 91.733333-12.8 0-21.333333 8.533333-21.333334 21.333334s8.533333 21.333333 21.333334 21.333333c74.666667 0 134.4-59.733333 134.4-134.4 0-10.666667-8.533333-21.333333-21.333334-21.333333z"  horiz-adv-x="1024" />

    
    <glyph glyph-name="tuanduicankaoxian-4" unicode="&#58944;" d="M512 157.866667c-68.266667 0-206.933333 149.333333-262.4 279.466666-17.066667 40.533333-25.6 76.8-25.6 108.8C224 704 354.133333 832 512 832s288-128 288-288c0-32-8.533333-68.266667-25.6-108.8-55.466667-128-194.133333-277.333333-262.4-277.333333zM512 789.333333c-134.4 0-245.333333-108.8-245.333333-245.333333 0-25.6 6.4-57.6 21.333333-91.733333 55.466667-130.133333 185.6-253.866667 221.866667-253.866667s168.533333 121.6 221.866666 253.866667c14.933333 34.133333 21.333333 64 21.333334 91.733333C757.333333 680.533333 646.4 789.333333 512 789.333333zM512 544m-100.266667 0a100.266667 100.266667 0 1 1 200.533334 0 100.266667 100.266667 0 1 1-200.533334 0ZM512 424.533333c-66.133333 0-121.6 53.333333-121.6 121.6s53.333333 121.6 121.6 121.6 121.6-53.333333 121.6-121.6-55.466667-121.6-121.6-121.6z m0 198.4c-42.666667 0-78.933333-34.133333-78.933333-78.933333s34.133333-78.933333 78.933333-78.933333 78.933333 34.133333 78.933333 78.933333-36.266667 78.933333-78.933333 78.933333zM825.6-34.133333H198.4c-36.266667 0-66.133333 29.866667-66.133333 66.133333V347.733333c0 12.8 8.533333 21.333333 21.333333 21.333334s21.333333-8.533333 21.333333-21.333334v-313.6c0-12.8 10.666667-23.466667 23.466667-23.466666h627.2c12.8 0 23.466667 10.666667 23.466667 23.466666V347.733333c0 12.8 8.533333 21.333333 21.333333 21.333334s21.333333-8.533333 21.333333-21.333334v-313.6c0-38.4-29.866667-68.266667-66.133333-68.266666z"  horiz-adv-x="1024" />

    
    <glyph glyph-name="tuanduicankaoxian-5" unicode="&#58945;" d="M512 428.8c-113.066667 0-204.8 91.733333-204.8 204.8s91.733333 204.8 204.8 204.8 204.8-91.733333 204.8-204.8-91.733333-204.8-204.8-204.8z m0 364.8c-89.6 0-162.133333-72.533333-162.133333-162.133333S422.4 469.333333 512 469.333333s162.133333 72.533333 162.133333 162.133334-72.533333 162.133333-162.133333 162.133333zM789.333333-74.666667H234.666667c-36.266667 0-64 29.866667-64 66.133334v320c0 46.933333 27.733333 89.6 70.4 108.8l170.666666 72.533333c10.666667 4.266667 23.466667 0 27.733334-10.666667 4.266667-10.666667 0-23.466667-10.666667-27.733333l-170.666667-72.533333c-27.733333-10.666667-44.8-38.4-44.8-68.266667v-320c0-12.8 10.666667-23.466667 21.333334-23.466667h554.666666c12.8 0 21.333333 10.666667 21.333334 23.466667v320c0 29.866667-17.066667 57.6-44.8 68.266667l-170.666667 72.533333c-10.666667 4.266667-17.066667 17.066667-10.666667 27.733333 4.266667 10.666667 17.066667 14.933333 27.733334 10.666667l170.666666-72.533333c42.666667-17.066667 70.4-59.733333 70.4-108.8v-320c0-36.266667-27.733333-66.133333-64-66.133334zM512 215.466667c-14.933333 0-27.733333 6.4-34.133333 19.2L362.666667 435.2c-6.4 10.666667-2.133333 23.466667 8.533333 29.866667 10.666667 6.4 23.466667 2.133333 29.866667-8.533334l113.066666-194.133333 113.066667 194.133333c6.4 10.666667 19.2 12.8 29.866667 8.533334 10.666667-6.4 12.8-19.2 8.533333-29.866667L546.133333 234.666667c-6.4-12.8-19.2-19.2-34.133333-19.2z"  horiz-adv-x="1024" />

    
    <glyph glyph-name="tuanduicankaoxian-6" unicode="&#58946;" d="M360.533333 243.2s-2.133333 0 0 0C192 243.2 57.6 379.733333 57.6 544c0 81.066667 29.866667 155.733333 87.466667 211.2 55.466667 55.466667 130.133333 87.466667 211.2 87.466667h2.133333c166.4 0 300.8-136.533333 302.933333-302.933334 0-81.066667-29.866667-155.733333-87.466666-211.2-59.733333-55.466667-134.4-85.333333-213.333334-85.333333z m-6.4 558.933333c-68.266667 0-132.266667-25.6-181.333333-74.666666s-74.666667-113.066667-74.666667-181.333334c0-142.933333 117.333333-258.133333 260.266667-260.266666h2.133333c68.266667 0 132.266667 25.6 181.333334 74.666666s74.666667 113.066667 74.666666 181.333334c-2.133333 142.933333-119.466667 258.133333-262.4 260.266666 2.133333 0 0 0 0 0zM838.4-89.6c-12.8 0-23.466667 4.266667-32 12.8L642.133333 85.333333c-8.533333 8.533333-12.8 21.333333-12.8 32 0 12.8 4.266667 23.466667 12.8 32l83.2 85.333334c17.066667 17.066667 49.066667 17.066667 66.133334 0l162.133333-162.133334c17.066667-17.066667 17.066667-46.933333 0-66.133333l-83.2-83.2c-8.533333-8.533333-19.2-12.8-32-12.8z m-81.066667 294.4h-2.133333l-83.2-83.2-2.133333-2.133333s0-2.133333 2.133333-2.133334l162.133333-162.133333c2.133333-2.133333 4.266667-2.133333 4.266667 0l83.2 83.2c2.133333 2.133333 2.133333 4.266667 0 4.266667l-162.133333 162.133333h-2.133334zM938.666667 21.333333zM842.666667 57.6L770.133333 128c-2.133333 2.133333-2.133333 6.4 0 8.533333l10.666667 10.666667c2.133333 2.133333 6.4 2.133333 8.533333 0l70.4-70.4c2.133333-2.133333 2.133333-6.4 0-8.533333l-10.666666-10.666667c0-2.133333-4.266667-2.133333-6.4 0zM697.6 153.6c-6.4 0-10.666667 2.133333-14.933333 6.4l-155.733334 155.733333c-8.533333 8.533333-8.533333 21.333333 0 29.866667s21.333333 8.533333 29.866667 0l155.733333-155.733333c8.533333-8.533333 8.533333-21.333333 0-29.866667-4.266667-4.266667-10.666667-6.4-14.933333-6.4zM356.266667 311.466667c-128 0-232.533333 104.533333-232.533334 232.533333S228.266667 776.533333 356.266667 776.533333s232.533333-104.533333 232.533333-232.533333-104.533333-232.533333-232.533333-232.533333z m0 443.733333c-117.333333 0-211.2-93.866667-211.2-211.2s93.866667-211.2 211.2-211.2 211.2 93.866667 211.2 211.2-93.866667 211.2-211.2 211.2z"  horiz-adv-x="1024" />

    
    <glyph glyph-name="tuanduicankaoxian-7" unicode="&#58947;" d="M654.933333-21.333333H196.266667C170.666667-21.333333 149.333333 0 149.333333 25.6V742.4C149.333333 768 170.666667 789.333333 196.266667 789.333333h631.466666C853.333333 789.333333 874.666667 768 874.666667 742.4v-544L654.933333-21.333333zM196.266667 746.666667c-2.133333 0-4.266667-2.133333-4.266667-4.266667v-716.8c0-2.133333 2.133333-4.266667 4.266667-4.266667h441.6l194.133333 194.133334V742.4c0 2.133333-2.133333 4.266667-4.266667 4.266667H196.266667zM300.8 469.333333c-6.4 0-10.666667 2.133333-14.933333 6.4l-44.8 44.8c-8.533333 8.533333-8.533333 21.333333 0 29.866667 8.533333 8.533333 21.333333 8.533333 29.866666 0l44.8-44.8c8.533333-8.533333 8.533333-21.333333 0-29.866667-4.266667-4.266667-10.666667-6.4-14.933333-6.4zM300.8 469.333333c-6.4 0-10.666667 2.133333-14.933333 6.4-8.533333 8.533333-8.533333 21.333333 0 29.866667l104.533333 104.533333c8.533333 8.533333 21.333333 8.533333 29.866667 0s8.533333-21.333333 0-29.866666l-104.533334-104.533334c-4.266667-4.266667-10.666667-6.4-14.933333-6.4zM300.8 232.533333c-6.4 0-10.666667 2.133333-14.933333 6.4l-44.8 44.8c-8.533333 8.533333-8.533333 21.333333 0 29.866667s21.333333 8.533333 29.866666 0l44.8-44.8c8.533333-8.533333 8.533333-21.333333 0-29.866667-4.266667-4.266667-10.666667-6.4-14.933333-6.4zM300.8 232.533333c-6.4 0-10.666667 2.133333-14.933333 6.4-8.533333 8.533333-8.533333 21.333333 0 29.866667l104.533333 106.666667c8.533333 8.533333 21.333333 8.533333 29.866667 0 8.533333-8.533333 8.533333-21.333333 0-29.866667l-104.533334-106.666667c-4.266667-4.266667-10.666667-6.4-14.933333-6.4zM746.666667 512H469.333333c-12.8 0-21.333333 8.533333-21.333333 21.333333s8.533333 21.333333 21.333333 21.333334h277.333334c12.8 0 21.333333-8.533333 21.333333-21.333334s-8.533333-21.333333-21.333333-21.333333zM746.666667 275.2H469.333333c-12.8 0-21.333333 8.533333-21.333333 21.333333s8.533333 21.333333 21.333333 21.333334h277.333334c12.8 0 21.333333-8.533333 21.333333-21.333334s-8.533333-21.333333-21.333333-21.333333zM667.733333 0h-42.666666v172.8c0 29.866667 23.466667 53.333333 53.333333 53.333333H853.333333v-42.666666h-172.8c-6.4 0-10.666667-4.266667-10.666666-10.666667V0z"  horiz-adv-x="1024" />

    
    <glyph glyph-name="tuanduicankaoxian-8" unicode="&#58949;" d="M829.866667 663.466667H170.666667c-12.8 0-21.333333 8.533333-21.333334 21.333333s8.533333 21.333333 21.333334 21.333333h659.2c12.8 0 21.333333-8.533333 21.333333-21.333333s-8.533333-21.333333-21.333333-21.333333zM742.4 661.333333H258.133333l51.2 96c8.533333 14.933333 25.6 23.466667 42.666667 23.466667h294.4c19.2 0 36.266667-8.533333 42.666667-23.466667l53.333333-96zM330.666667 704h341.333333l-17.066667 34.133333s-2.133333 2.133333-6.4 2.133334H354.133333c-4.266667 0-6.4-2.133333-6.4-2.133334L330.666667 704zM731.733333-19.2H270.933333c-21.333333 0-38.4 17.066667-38.4 36.266667L192 580.266667c0 10.666667 2.133333 21.333333 10.666667 29.866666 6.4 8.533333 17.066667 12.8 29.866666 12.8h539.733334c10.666667 0 21.333333-4.266667 29.866666-12.8 6.4-8.533333 10.666667-19.2 10.666667-29.866666l-38.4-561.066667c-4.266667-21.333333-21.333333-38.4-42.666667-38.4z m-458.666666 42.666667h454.4l38.4 554.666666H234.666667l38.4-554.666666zM582.4 64h-2.133333c-10.666667 2.133333-21.333333 10.666667-19.2 23.466667l40.533333 411.733333c2.133333 10.666667 10.666667 19.2 23.466667 19.2 10.666667-2.133333 21.333333-10.666667 19.2-23.466667l-40.533334-411.733333c0-10.666667-8.533333-19.2-21.333333-19.2zM418.133333 64c-10.666667 0-19.2 8.533333-21.333333 19.2l-40.533333 411.733333c-2.133333 10.666667 6.4 21.333333 19.2 23.466667 12.8 2.133333 21.333333-6.4 23.466666-19.2l40.533334-411.733333c2.133333-10.666667-6.4-21.333333-19.2-23.466667h-2.133334z"  horiz-adv-x="1024" />

    
    <glyph glyph-name="tuanduicankaoxian-9" unicode="&#58950;" d="M840.533333 445.866667H782.933333c-12.8 0-21.333333 8.533333-21.333333 21.333333s8.533333 21.333333 21.333333 21.333333h46.933334L512 770.133333 187.733333 488.533333h40.533334c12.8 0 21.333333-8.533333 21.333333-21.333333s-8.533333-21.333333-21.333333-21.333333h-8.533334c-87.466667-2.133333-96 0-102.4 17.066666-4.266667 8.533333 0 19.2 6.4 25.6l369.066667 320c12.8 10.666667 29.866667 10.666667 40.533333 0l373.333334-330.666666-4.266667-14.933334c-6.4-14.933333-12.8-17.066667-61.866667-17.066666zM774.4-38.4H243.2c-29.866667 0-53.333333 21.333333-53.333333 49.066667V413.866667c0 12.8 8.533333 21.333333 21.333333 21.333333s21.333333-8.533333 21.333333-21.333333v-401.066667c0-4.266667 4.266667-6.4 10.666667-6.4h531.2c6.4 0 10.666667 4.266667 10.666667 6.4V413.866667c0 12.8 8.533333 21.333333 21.333333 21.333333s21.333333-8.533333 21.333333-21.333333v-401.066667c-2.133333-27.733333-25.6-51.2-53.333333-51.2zM507.733333 305.066667m-138.666666 0a138.666667 138.666667 0 1 1 277.333333 0 138.666667 138.666667 0 1 1-277.333333 0ZM507.733333 142.933333c-89.6 0-160 72.533333-160 160 0 89.6 72.533333 160 160 160s160-72.533333 160-160c2.133333-87.466667-70.4-160-160-160z m0 279.466667c-66.133333 0-117.333333-53.333333-117.333333-117.333333s53.333333-117.333333 117.333333-117.333334c66.133333 0 117.333333 53.333333 117.333334 117.333334s-51.2 117.333333-117.333334 117.333333z"  horiz-adv-x="1024" />

    
    <glyph glyph-name="tuanduicankaoxian-10" unicode="&#58951;" d="M405.333333 23.466667c-14.933333 0-29.866667 4.266667-42.666666 12.8L76.8 198.4c-27.733333 14.933333-44.8 44.8-44.8 76.8s17.066667 59.733333 44.8 76.8L362.666667 516.266667c29.866667 17.066667 66.133333 14.933333 91.733333-4.266667 23.466667-17.066667 34.133333-44.8 27.733333-74.666667v-324.266666c6.4-29.866667-4.266667-57.6-27.733333-74.666667-17.066667-10.666667-32-14.933333-49.066667-14.933333zM98.133333 313.6c-14.933333-8.533333-23.466667-23.466667-23.466666-38.4s8.533333-29.866667 23.466666-38.4L384 72.533333c14.933333-8.533333 32-8.533333 44.8 2.133334 6.4 4.266667 14.933333 14.933333 10.666667 34.133333V445.866667c4.266667 19.2-6.4 29.866667-10.666667 34.133333-12.8 8.533333-29.866667 10.666667-44.8 2.133333L98.133333 313.6zM738.133333 200.533333H437.333333v155.733334h292.266667c21.333333 0 51.2 12.8 64 27.733333 55.466667 68.266667 38.4 138.666667 0 177.066667-23.466667 23.466667-53.333333 36.266667-85.333333 36.266666h-194.133334c-42.666667 0-76.8 34.133333-76.8 76.8s36.266667 78.933333 78.933334 78.933334h198.4c74.666667 0 142.933333-27.733333 196.266666-81.066667 96-96 108.8-236.8 32-362.666667-42.666667-66.133333-119.466667-108.8-204.8-108.8z m-258.133333 42.666667h258.133333c68.266667 0 132.266667 34.133333 166.4 89.6 66.133333 106.666667 55.466667 228.266667-25.6 309.333333-44.8 44.8-102.4 68.266667-166.4 68.266667h-198.4c-19.2 0-36.266667-17.066667-36.266666-36.266667 0-19.2 14.933333-34.133333 34.133333-34.133333h194.133333c42.666667 0 85.333333-17.066667 115.2-49.066667 51.2-51.2 74.666667-147.2 2.133334-234.666666-19.2-25.6-61.866667-44.8-96-44.8H480v-68.266667z"  horiz-adv-x="1024" />

    
    <glyph glyph-name="tuanduicankaoxian-11" unicode="&#58952;" d="M288-8.533333c-8.533333 0-14.933333 2.133333-23.466667 6.4-12.8 8.533333-19.2 23.466667-17.066666 38.4l36.266666 253.866666-187.733333 170.666667c-10.666667 10.666667-17.066667 25.6-10.666667 40.533333 4.266667 14.933333 17.066667 25.6 32 27.733334L369.066667 576l104.533333 232.533333c6.4 14.933333 19.2 23.466667 36.266667 23.466667 14.933333 0 29.866667-8.533333 36.266666-21.333333l121.6-226.133334L921.6 554.666667c14.933333-2.133333 27.733333-12.8 34.133333-25.6 4.266667-14.933333 2.133333-29.866667-8.533333-42.666667L768 302.933333l51.2-249.6c2.133333-14.933333-2.133333-29.866667-14.933333-40.533333s-27.733333-10.666667-42.666667-4.266667l-230.4 113.066667-221.866667-125.866667c-6.4-4.266667-12.8-4.266667-21.333333-4.266666zM128 488.533333l185.6-170.666666c10.666667-8.533333 14.933333-23.466667 12.8-36.266667l-34.133333-249.6L512 157.866667c10.666667 6.4 25.6 6.4 38.4 2.133333l228.266667-110.933333-51.2 245.333333c-2.133333 12.8 2.133333 27.733333 10.666666 36.266667l174.933334 181.333333L661.333333 541.866667c-12.8 2.133333-25.6 8.533333-32 21.333333L512 785.066667l-104.533333-228.266667c-6.4-12.8-17.066667-21.333333-29.866667-23.466667L128 488.533333z m652.8-439.466666z"  horiz-adv-x="1024" />

    
    <glyph glyph-name="tuanduicankaoxian-12" unicode="&#58953;" d="M215.466667 189.866667c-91.733333 0-166.4 74.666667-166.4 166.4s74.666667 166.4 166.4 166.4 166.4-74.666667 166.4-166.4-74.666667-166.4-166.4-166.4z m0 290.133333c-68.266667 0-123.733333-55.466667-123.733334-123.733333s55.466667-123.733333 123.733334-123.733334 123.733333 55.466667 123.733333 123.733334-55.466667 123.733333-123.733333 123.733333zM622.933333 480c-74.666667 0-136.533333 61.866667-136.533333 136.533333s61.866667 136.533333 136.533333 136.533334c74.666667 0 136.533333-61.866667 136.533334-136.533334s-59.733333-136.533333-136.533334-136.533333z m0 230.4c-51.2 0-93.866667-42.666667-93.866666-93.866667 0-51.2 42.666667-93.866667 93.866666-93.866666s93.866667 42.666667 93.866667 93.866666c0 51.2-40.533333 93.866667-93.866667 93.866667zM791.466667 29.866667c-96 0-174.933333 78.933333-174.933334 174.933333s78.933333 174.933333 174.933334 174.933333 174.933333-78.933333 174.933333-174.933333-78.933333-174.933333-174.933333-174.933333z m0 305.066666c-72.533333 0-132.266667-59.733333-132.266667-132.266666s59.733333-132.266667 132.266667-132.266667 132.266667 59.733333 132.266666 132.266667-59.733333 132.266667-132.266666 132.266666zM640 202.666667h-4.266667L341.333333 275.2c-10.666667 2.133333-19.2 14.933333-14.933333 25.6 2.133333 10.666667 14.933333 19.2 25.6 14.933333l294.4-72.533333c10.666667-2.133333 19.2-14.933333 14.933333-25.6-2.133333-8.533333-10.666667-14.933333-21.333333-14.933333zM334.933333 418.133333c-6.4 0-12.8 2.133333-17.066666 8.533334-6.4 8.533333-4.266667 23.466667 4.266666 29.866666l183.466667 132.266667c8.533333 6.4 23.466667 4.266667 29.866667-4.266667 6.4-8.533333 4.266667-23.466667-4.266667-29.866666l-183.466667-132.266667c-4.266667-4.266667-8.533333-4.266667-12.8-4.266667z"  horiz-adv-x="1024" />

    
    <glyph glyph-name="tuanduicankaoxian-13" unicode="&#58954;" d="M874.666667 183.466667H390.4c-19.2 0-36.266667 12.8-42.666667 29.866666v2.133334l-100.266666 379.733333c-2.133333 8.533333 2.133333 17.066667 8.533333 25.6 6.4 6.4 14.933333 10.666667 23.466667 10.666667h640c19.2 0 36.266667-8.533333 46.933333-21.333334s17.066667-32 14.933333-51.2l-42.666666-320c-4.266667-32-32-55.466667-64-55.466666z m-486.4 44.8l2.133333-2.133334H874.666667c10.666667 0 19.2 8.533333 21.333333 17.066667l42.666667 320c0 6.4 0 12.8-4.266667 17.066667-4.266667 4.266667-8.533333 6.4-14.933333 6.4H292.266667l96-358.4zM505.6 264.533333c-10.666667 0-19.2 6.4-21.333333 17.066667l-46.933334 217.6c-2.133333 10.666667 4.266667 23.466667 17.066667 25.6 10.666667 2.133333 23.466667-4.266667 25.6-17.066667l46.933333-217.6c2.133333-10.666667-4.266667-23.466667-17.066666-25.6h-4.266667zM635.733333 262.4c-12.8 0-21.333333 8.533333-21.333333 21.333333V505.6c0 12.8 8.533333 21.333333 21.333333 21.333333s21.333333-8.533333 21.333334-21.333333v-224c0-10.666667-8.533333-19.2-21.333334-19.2zM768 264.533333h-4.266667c-10.666667 2.133333-19.2 12.8-17.066666 25.6l44.8 217.6c2.133333 10.666667 12.8 19.2 25.6 17.066667 10.666667-2.133333 19.2-12.8 17.066666-25.6L789.333333 281.6c-4.266667-10.666667-12.8-17.066667-21.333333-17.066667zM358.4-10.666667c-44.8 0-83.2 36.266667-83.2 83.2 0 44.8 36.266667 83.2 83.2 83.2s83.2-36.266667 83.2-83.2c0-44.8-36.266667-83.2-83.2-83.2z m0 123.733334c-21.333333 0-40.533333-17.066667-40.533333-40.533334s17.066667-40.533333 40.533333-40.533333 40.533333 17.066667 40.533333 40.533333-19.2 40.533333-40.533333 40.533334zM874.666667-10.666667c-44.8 0-83.2 36.266667-83.2 83.2 0 44.8 36.266667 83.2 83.2 83.2s83.2-36.266667 83.2-83.2c0-44.8-38.4-83.2-83.2-83.2z m0 123.733334c-21.333333 0-40.533333-17.066667-40.533334-40.533334s17.066667-40.533333 40.533334-40.533333 40.533333 17.066667 40.533333 40.533333-19.2 40.533333-40.533333 40.533334zM264.533333 582.4c-6.4 0-10.666667 2.133333-14.933333 6.4L96 740.266667c-8.533333 8.533333-8.533333 21.333333 0 29.866666s21.333333 8.533333 29.866667 0L277.333333 618.666667c8.533333-8.533333 8.533333-21.333333 0-29.866667-2.133333-4.266667-8.533333-6.4-12.8-6.4zM34.133333 736c-10.666667 0-21.333333 8.533333-21.333333 21.333333s8.533333 21.333333 21.333333 21.333334L106.666667 780.8c12.8 0 21.333333-8.533333 21.333333-21.333333s-8.533333-21.333333-21.333333-21.333334l-72.533334-2.133333z"  horiz-adv-x="1024" />

    
    <glyph glyph-name="tuanduicankaoxian-14" unicode="&#58956;" d="M806.4-21.333333H174.933333C149.333333-21.333333 128 0 128 25.6V742.4C128 768 149.333333 789.333333 174.933333 789.333333h631.466667C832 789.333333 853.333333 768 853.333333 742.4V256c0-12.8-8.533333-21.333333-21.333333-21.333333s-21.333333 8.533333-21.333333 21.333333V742.4c0 2.133333-2.133333 4.266667-4.266667 4.266667H174.933333c-2.133333 0-4.266667-2.133333-4.266666-4.266667v-716.8c0-2.133333 2.133333-4.266667 4.266666-4.266667h631.466667c12.8 0 21.333333-8.533333 21.333333-21.333333s-10.666667-21.333333-21.333333-21.333333zM789.333333 59.733333c-6.4 0-10.666667 2.133333-14.933333 6.4l-64 64c-8.533333 8.533333-8.533333 21.333333 0 29.866667s21.333333 8.533333 29.866667 0l64-64c8.533333-8.533333 8.533333-21.333333 0-29.866667-4.266667-4.266667-8.533333-6.4-14.933334-6.4zM789.333333 59.733333c-6.4 0-10.666667 2.133333-14.933333 6.4-8.533333 8.533333-8.533333 21.333333 0 29.866667l149.333333 149.333333c8.533333 8.533333 21.333333 8.533333 29.866667 0s8.533333-21.333333 0-29.866666l-149.333333-149.333334c-4.266667-4.266667-8.533333-6.4-14.933334-6.4zM699.733333 512H281.6c-12.8 0-21.333333 8.533333-21.333333 21.333333s8.533333 21.333333 21.333333 21.333334h418.133333c12.8 0 21.333333-8.533333 21.333334-21.333334s-10.666667-21.333333-21.333334-21.333333zM695.466667 253.866667H277.333333c-12.8 0-21.333333 8.533333-21.333333 21.333333s8.533333 21.333333 21.333333 21.333333h418.133334c12.8 0 21.333333-8.533333 21.333333-21.333333s-8.533333-21.333333-21.333333-21.333333zM699.733333 386.133333H281.6c-12.8 0-21.333333 8.533333-21.333333 21.333334s8.533333 21.333333 21.333333 21.333333h418.133333c12.8 0 21.333333-8.533333 21.333334-21.333333s-10.666667-21.333333-21.333334-21.333334z"  horiz-adv-x="1024" />

    
    <glyph glyph-name="tuanduicankaoxian-15" unicode="&#58957;" d="M125.866667 49.066667c-8.533333 0-19.2 4.266667-25.6 10.666666-8.533333 8.533333-12.8 23.466667-8.533334 34.133334L136.533333 298.666667l448 448c55.466667 53.333333 140.8 59.733333 198.4 14.933333 32-25.6 49.066667-61.866667 51.2-102.4 2.133333-40.533333-12.8-81.066667-42.666666-108.8L339.2 96l-204.8-44.8c-2.133333-2.133333-4.266667-2.133333-8.533333-2.133333z m6.4 36.266666z m-6.4 6.4zM174.933333 277.333333l-40.533333-183.466666 183.466667 40.533333 443.733333 443.733333c21.333333 21.333333 32 49.066667 29.866667 76.8-2.133333 27.733333-14.933333 53.333333-36.266667 72.533334-38.4 32-100.266667 27.733333-140.8-12.8L174.933333 277.333333z m153.6-162.133333zM637.866667 644.266667l-55.466667 55.466666c-4.266667 4.266667-4.266667 12.8 0 17.066667 4.266667 4.266667 12.8 4.266667 17.066667 0l55.466666-55.466667c4.266667-4.266667 4.266667-12.8 0-17.066666-4.266667-4.266667-10.666667-4.266667-17.066666 0zM608 612.266667l-55.466667 55.466666c-4.266667 4.266667-4.266667 12.8 0 17.066667 4.266667 4.266667 12.8 4.266667 17.066667 0l55.466667-55.466667c4.266667-4.266667 4.266667-12.8 0-17.066666-6.4-4.266667-12.8-4.266667-17.066667 0zM364.8 170.666667l-55.466667 55.466666c-4.266667 4.266667-4.266667 12.8 0 17.066667 4.266667 4.266667 12.8 4.266667 17.066667 0l55.466667-55.466667c4.266667-4.266667 4.266667-12.8 0-17.066666-4.266667-6.4-10.666667-6.4-17.066667 0zM334.933333 138.666667L279.466667 192c-4.266667 4.266667-4.266667 12.8 0 17.066667 4.266667 4.266667 12.8 4.266667 17.066666 0l55.466667-55.466667c4.266667-4.266667 4.266667-12.8 0-17.066667-6.4-4.266667-12.8-4.266667-17.066667 2.133334zM859.733333-19.2H100.266667c-12.8 0-21.333333 8.533333-21.333334 21.333333s8.533333 21.333333 21.333334 21.333334h759.466666c12.8 0 21.333333-8.533333 21.333334-21.333334s-10.666667-21.333333-21.333334-21.333333z"  horiz-adv-x="1024" />

    
    <glyph glyph-name="pull_down" unicode="&#58642;" d="M232.1009750366211 570.0084056854248l278.3173799514771-301.2251615524292 282.4366092681885 299.2785215377807c12.401139736175534 13.278865814208983 32.562768459320075 13.235414028167723 45.016050338745124-0.10428428649902344 12.453281879425049-13.331007957458496 12.505424022674559-34.91785526275635-3.093767166137695-48.19672107696532L536.663233757019 200.50310754776c-4.501605033874513-4.310417175292969-9.820103645324707-9.25523042678833-12.687921524047852-10.080814361572266-11.705911159515379-5.049097537994385-26.088452339172367-2.5202035903930664-37.90733814239501 7.569301128387451L183.79127931594843 521.7074003219604c-9.316062927246094 13.391840457916256-9.368205070495605 35.07428169250488 3.0850768089294434 48.41398000717163 12.4619722366333 13.339698314666744 32.70181417465211 13.296246528625488 45.224618911743164-0.11297464370727536z"  horiz-adv-x="1024" />

    
    <glyph glyph-name="hongbao1" unicode="&#58883;" d="M825-63.7H199c-34 0-63.1 28.7-63.1 62.2v589c53.4-55.1 116.5-98.2 189.2-124.5v-2.4c0-102.9 84.9-184.3 186.8-186.7 104.3 0 186.8 83.8 189.2 186.7 0 2.4-2.4 2.4-2.4 4.8 70.4 26.3 135.9 69.4 189.2 124.5v-591.3c0.1-33.5-29-62.3-62.9-62.3zM510.7 367.8l-94.3 93.1 94.4 93.1 94.4-93.1-94.5-93.1z m178.4 157.4c-26.7 71.8-97 119.7-177.1 119.7-77.6 0-148-47.9-174.7-119.7-82.5 33.5-152.8 91-201.4 160.4v83.8c0 33.5 29.1 62.2 63.1 62.2h626c34 0 63.1-28.7 63.1-62.2v-83.8c-46.2-71.8-116.5-126.8-199-160.4z"  horiz-adv-x="1024" />

    
    <glyph glyph-name="kefu1" unicode="&#59983;" d="M872.879 212.38c0-23.078-11.452-34.392-34.392-34.392-22.974 0-34.392 11.313-34.392 34.392V384.336c0 23.114 11.418 34.392 34.392 34.392 22.939 0 34.392-11.278 34.392-34.392V212.38zM219.437 384.336V212.38c0-23.078-11.419-34.392-34.393-34.392-22.972 0-34.391 11.313-34.391 34.392 0.068 1.271 0 171.957 0 171.957 0 23.081 11.418 34.392 34.391 34.392 22.94 0 34.393-11.312 34.393-34.393zM508.293 831.433c-236.411 0-426.424-193.249-426.424-430.79 0-1.515 0.38-2.857 0.687-4.268-0.239-2.304-0.687-4.572-0.687-6.877v-187.574c0-43.126 32.605-85.634 75.525-85.634h52.275c42.885 0 79.618 42.508 79.618 85.634V389.497c-1.065 63.625-35.458 98.017-69.85 98.017H167.85C219.437 625.08 317.8 762.648 507.364 762.648c189.156 0 296.732-137.568 348.32-275.134-2.683 0.344-51.588 0-51.588 0-42.92 0-68.784-60.049-68.784-103.177v-182.414c0-22.214 6.536-44.261 20.224-60.423l-142.45-93.893c-11.521 13.859-28.064 23.182-46.6 23.182l-71.913 4.025c-34.669 0-68.784-33.946-68.784-68.786v-5.777c0-34.84 34.115-63.004 68.784-63.004h71.913c29.715 0 54.543 19.191 61.079 46.564l205.18 132.478h26.482c42.886 0 82.437 42.508 82.437 85.634V400.297C933.997 631.135 739.818 831.433 508.293 831.433z m0 0"  horiz-adv-x="1024" />

    
    <glyph glyph-name="jiantou" unicode="&#58958;" d="M678.4 385.3L246.6 817.1c-18.1 18.1-18.1 47.6 0 65.7s47.6 18.1 65.7 0L777 418.1c18.2-18.1 18.2-47.6 0-65.7l-464.6-464.6c-9.1-9.1-21-13.6-32.9-13.6-11.9 0-23.8 4.5-32.9 13.6-18.1 18.1-18.1 47.6 0 65.7l431.8 431.8z m0 0"  horiz-adv-x="1024" />

    


  </font>
</defs>
</svg>
